HIERARCHY
ROOT SimulationBone
{
	OFFSET 0.000000 0.000000 0.000000
	CHANNELS 6 Xposition Yposition Zposition Zrotation Yrotation Xrotation 
	JOINT Hips
	{
		OFFSET 0.000000 0.000000 0.000000
		CHANNELS 6 Xposition Yposition Zposition Zrotation Yrotation Xrotation 
		JOINT RightUpLeg
		{
			OFFSET 0.103458 1.857826 10.548496
			CHANNELS 3 Zrotation Yrotation Xrotation
			JOINT RightLeg
			{
				OFFSET 43.500000 -0.000027 -0.000004
				CHANNELS 3 Zrotation Yrotation Xrotation
				JOINT RightFoot
				{
					OFFSET 42.372200 0.000015 -0.000005
					CHANNELS 3 Zrotation Yrotation Xrotation
					JOINT RightToe
					{
						OFFSET 17.299997 -0.000002 0.000005
						CHANNELS 3 Zrotation Yrotation Xrotation
						End Site
						{
							OFFSET 0.000000 0.000000 0.000000
						}
					}
				}
			}
		}
		JOINT LeftUpLeg
		{
			OFFSET 0.103458 1.857826 -10.548510
			CHANNELS 3 Zrotation Yrotation Xrotation
			JOINT LeftLeg
			{
				OFFSET 43.500046 -0.000015 0.000000
				CHANNELS 3 Zrotation Yrotation Xrotation
				JOINT LeftFoot
				{
					OFFSET 42.372261 -0.000011 0.000021
					CHANNELS 3 Zrotation Yrotation Xrotation
					JOINT LeftToe
					{
						OFFSET 17.299997 -0.000004 0.000000
						CHANNELS 3 Zrotation Yrotation Xrotation
						End Site
						{
							OFFSET 0.000000 0.000000 0.000000
						}
					}
				}
			}
		}
		JOINT Spine
		{
			OFFSET 6.901967 -2.603728 0.000002
			CHANNELS 3 Zrotation Yrotation Xrotation
			JOINT Spine1
			{
				OFFSET 12.588098 -0.000006 -0.000001
				CHANNELS 3 Zrotation Yrotation Xrotation
				JOINT Spine2
				{
					OFFSET 12.343200 0.000006 -0.000002
					CHANNELS 3 Zrotation Yrotation Xrotation
					JOINT Neck
					{
						OFFSET 25.832905 -0.000006 -0.000005
						CHANNELS 3 Zrotation Yrotation Xrotation
						JOINT Head
						{
							OFFSET 11.766604 0.000006 0.000006
							CHANNELS 3 Zrotation Yrotation Xrotation
							End Site
							{
								OFFSET 0.000000 0.000000 0.000000
							}
						}
					}
					JOINT RightShoulder
					{
						OFFSET 19.745914 -1.480366 6.000100
						CHANNELS 3 Zrotation Yrotation Xrotation
						JOINT RightArm
						{
							OFFSET 11.284136 -0.000006 -0.000022
							CHANNELS 3 Zrotation Yrotation Xrotation
							JOINT RightForeArm
							{
								OFFSET 33.000057 0.000006 0.000029
								CHANNELS 3 Zrotation Yrotation Xrotation
								JOINT RightHand
								{
									OFFSET 25.199999 0.000011 -0.000002
									CHANNELS 3 Zrotation Yrotation Xrotation
									End Site
									{
										OFFSET 0.000000 0.000000 0.000000
									}
								}
							}
						}
					}
					JOINT LeftShoulder
					{
						OFFSET 19.746107 -1.480371 -6.000078
						CHANNELS 3 Zrotation Yrotation Xrotation
						JOINT LeftArm
						{
							OFFSET 11.284137 -0.000012 0.000000
							CHANNELS 3 Zrotation Yrotation Xrotation
							JOINT LeftForeArm
							{
								OFFSET 33.000088 0.000017 0.000001
								CHANNELS 3 Zrotation Yrotation Xrotation
								JOINT LeftHand
								{
									OFFSET 25.199789 0.000135 0.000430
									CHANNELS 3 Zrotation Yrotation Xrotation
									End Site
									{
										OFFSET 0.000000 0.000000 0.000000
									}
								}
							}
						}
					}
				}
			}
		}
	}
}
MOTION
Frames: 14
Frame Time: 0.016667
251.365120 0.000000 -225.889115 0.000000 126.645827 0.000000 4.016247 88.517403 0.720568 101.495094 0.350737 177.867150 176.249985 3.939106 179.638428 -29.793742 -6.282787 -12.832908 84.249679 9.459092 2.562907 21.454558 0.003112 0.000019 174.573024 7.077106 -166.040382 -72.959670 2.265723 -2.714921 69.438161 4.067822 6.020374 21.454550 -0.003092 0.000002 8.216503 -0.747804 0.503302 6.414302 -1.522177 0.964620 6.096137 -1.516458 0.973789 10.177342 -2.321960 18.019169 -7.064936 -17.289256 22.998849 -155.750005 -66.481473 -26.439031 -7.989185 57.111745 29.829829 -29.625483 -17.502703 1.408598 6.580883 1.271090 6.724955 -166.343095 75.581059 15.451357 -14.917192 -59.721191 -29.621283 -28.116070 14.377328 -1.154683 9.244971 -6.185276 -27.699348 
251.433978 0.000000 -227.139546 0.000000 128.280853 0.000000 4.036588 88.618122 0.799154 101.596175 0.467226 178.176681 177.010880 3.549590 -178.913863 -29.747503 -6.480901 -12.366531 84.558575 9.082889 2.324318 21.454557 0.003115 0.000019 173.117023 7.275030 -167.067295 -74.169022 2.133754 -1.974734 69.946653 3.502635 6.043358 21.454550 -0.003095 0.000002 8.255029 -0.757173 0.411517 6.492559 -1.536095 0.780127 6.174372 -1.531485 0.789385 10.040199 -2.364059 18.099290 -7.137728 -17.274731 23.079518 -155.971102 -66.647237 -26.206292 -8.582571 56.928054 29.395517 -30.046506 -17.699512 1.429360 6.562896 1.583284 6.922792 -165.615399 75.499420 16.196080 -13.809020 -59.691411 -30.198227 -27.936162 14.103053 -1.133799 9.213296 -6.750200 -27.806652 
251.506636 0.000000 -228.396924 0.000000 129.958633 0.000000 4.034382 88.713516 0.867425 101.677875 0.583437 178.461205 177.716878 3.143601 -177.562283 -29.689093 -6.591343 -11.848682 84.832034 8.671938 2.077612 21.454558 0.003116 0.000018 171.763985 7.344305 -168.438954 -74.783528 2.112683 -0.908446 70.187590 2.774681 6.246093 21.454551 -0.003097 0.000001 8.300164 -0.770658 0.331062 6.583877 -1.558780 0.617946 6.265675 -1.555149 0.627347 9.997266 -2.332625 18.135129 -7.117156 -17.217315 23.097311 -156.268088 -66.840966 -25.894435 -9.215320 56.728407 28.940207 -30.549048 -17.952920 1.455643 6.547281 1.705324 7.090918 -165.030825 75.439558 16.794427 -12.851642 -59.712558 -30.633978 -27.677976 13.822769 -1.111356 9.279114 -7.091925 -27.722820 
251.579869 0.000000 -229.660985 0.000000 131.678744 0.000000 4.006454 88.803527 0.926376 101.743836 0.692123 178.679222 178.382915 2.722384 -176.333513 -29.595125 -6.630361 -11.285976 85.066418 8.230811 1.824476 21.454558 0.003113 0.000018 170.490225 7.330975 -170.304616 -74.874772 2.267509 0.203677 70.624679 2.005860 6.478348 21.454551 -0.003099 0.000002 8.354163 -0.790318 0.268517 6.692693 -1.594727 0.491065 6.374479 -1.591865 0.500686 10.016207 -2.228485 18.109640 -7.067921 -17.190227 23.064495 -156.580169 -67.053683 -25.566669 -9.917348 56.521621 28.455729 -31.114966 -18.239038 1.485478 6.449270 1.630942 7.211997 -164.611343 75.381706 17.223898 -12.059558 -59.769720 -31.132785 -27.335186 13.664095 -1.095233 9.444281 -7.331599 -27.265195 
251.649414 0.000000 -230.931290 0.000000 133.442401 0.000000 3.938654 88.865738 0.986419 101.760932 0.731851 178.842741 178.934113 2.340698 -175.146363 -29.521559 -6.648544 -10.709142 85.282342 7.778726 1.557401 21.454558 0.003108 0.000018 169.272291 7.299394 -172.408113 -74.502254 2.364907 1.298699 71.303165 1.231131 6.691314 21.454551 -0.003100 0.000004 8.411667 -0.826893 0.209822 6.808490 -1.664586 0.370808 6.490261 -1.662455 0.380853 10.056743 -2.129559 18.054567 -7.023804 -17.151380 23.000008 -156.773618 -67.221578 -25.362827 -10.645906 56.284059 27.816511 -31.809904 -18.531227 1.518722 6.276016 1.456297 7.431988 -164.399975 75.338021 17.440406 -11.353364 -59.860582 -31.658803 -27.021877 13.647591 -1.088774 9.690383 -7.497674 -26.923503 
251.713102 0.000000 -232.207334 0.000000 135.251611 0.000000 3.821091 88.888069 1.054070 101.701476 0.664575 178.973869 179.313354 2.026978 -173.929685 -29.501803 -6.688059 -10.136277 85.489609 7.328126 1.274830 21.454556 0.003106 0.000017 168.104369 7.285806 -174.471969 -73.696029 2.176015 2.381069 72.133186 0.446457 6.843660 21.454551 -0.003100 0.000005 8.466629 -0.885660 0.141386 6.919441 -1.778083 0.229731 6.601188 -1.776807 0.240464 10.089400 -2.108805 18.003185 -7.004431 -17.052545 22.921260 -156.756773 -67.292500 -25.378778 -11.343234 55.992900 26.932372 -32.690712 -18.811830 1.555809 6.061207 1.274853 7.861993 -164.398930 75.325023 17.441577 -10.662914 -59.980505 -32.139666 -26.848342 13.748914 -1.092339 9.975960 -7.589236 -27.186122 
251.771616 0.000000 -233.488778 0.000000 137.107496 0.000000 3.672067 88.922142 1.122288 101.582517 0.606931 179.085760 179.618839 1.644903 -172.768802 -29.396501 -6.728913 -9.510975 85.630682 6.848515 1.009212 21.454555 0.003107 0.000017 167.071686 7.154905 -176.525078 -72.345042 1.774121 3.516918 72.903123 -0.422549 6.814927 21.454550 -0.003098 0.000004 8.517727 -0.941417 0.072205 7.022815 -1.885385 0.087305 6.704540 -1.884968 0.098688 10.134974 -2.141965 17.946945 -7.003311 -16.935922 22.832530 -156.699592 -67.313711 -25.437526 -11.977943 55.666453 25.959977 -33.694938 -19.102222 1.596637 5.854599 1.063304 8.311188 -164.431599 75.345472 17.408015 -10.050427 -60.100458 -32.595178 -26.789078 13.870979 -1.099145 10.174704 -7.597756 -27.862919 
251.826953 0.000000 -234.776858 0.000000 139.010405 0.000000 3.513015 89.009998 1.183554 101.423523 0.662502 179.180310 179.942384 1.077951 -171.748831 -29.093927 -6.749172 -8.787287 85.663750 6.313454 0.784994 21.454556 0.003109 0.000017 166.270297 6.793681 -178.650794 -70.362849 1.260567 4.757690 73.467153 -1.421743 6.550172 21.454546 -0.003095 0.000001 8.565354 -0.972142 0.014529 7.119109 -1.943253 -0.030625 6.800824 -1.943543 -0.018891 10.216848 -2.186648 17.872040 -7.009504 -16.855594 22.736612 -156.782158 -67.346423 -25.351382 -12.539883 55.333127 25.072049 -34.734982 -19.419833 1.640661 5.696237 0.777621 8.545406 -164.313465 75.399905 17.528425 -9.589598 -60.196830 -33.055759 -26.794458 13.927473 -1.102852 10.204684 -7.519853 -28.646210 
251.879843 0.000000 -236.074171 0.000000 140.960733 0.000000 3.346965 89.091652 1.238851 101.238698 0.724420 179.221668 -179.787204 0.466509 -170.785260 -28.767946 -6.767219 -8.035027 85.677865 5.758505 0.557110 21.454558 0.003110 0.000017 165.702848 6.343709 179.130262 -67.920507 0.581571 6.033034 74.047794 -2.423782 6.321558 21.454545 -0.003092 -0.000001 8.612365 -0.998926 -0.029172 7.213991 -1.994017 -0.120422 6.895692 -1.994843 -0.108379 10.318809 -2.225471 17.785328 -7.020944 -16.822853 22.643682 -156.956298 -67.407858 -25.169892 -13.056843 55.010891 24.277532 -35.741122 -19.726957 1.684723 5.569047 0.415619 8.458790 -164.005600 75.493408 17.842564 -9.259268 -60.291437 -33.511195 -26.854063 13.948041 -1.105177 10.253926 -7.356712 -29.437107 
251.928641 0.000000 -237.381617 0.000000 142.959074 0.000000 3.171799 89.109139 1.288447 101.042789 0.680267 179.191264 -179.647557 -0.037479 -169.758854 -28.586994 -6.799337 -7.333086 85.754620 5.226523 0.278810 21.454558 0.003109 0.000016 165.353418 5.968729 176.800587 -65.185322 -0.287656 7.225029 74.851477 -3.293513 6.334589 21.454551 -0.003089 -0.000001 8.661073 -1.043347 -0.061706 7.312222 -2.080646 -0.189101 6.993892 -2.081884 -0.176532 10.418212 -2.258533 17.697732 -7.044989 -16.823918 22.561387 -157.134874 -67.498591 -24.983272 -13.565599 54.713371 23.537027 -36.658572 -19.986895 1.724290 5.440691 -0.004995 8.033275 -163.540157 75.613721 18.317553 -9.022515 -60.389161 -33.941030 -26.956102 13.976679 -1.108731 10.476740 -7.126965 -30.173014 
251.972104 0.000000 -238.697873 0.000000 145.005608 0.000000 2.988929 89.114609 1.313082 100.823242 0.603721 179.175157 -179.595002 -0.501295 -168.595078 -28.410304 -6.835972 -6.680961 85.813184 4.724158 -0.026936 21.454558 0.003106 0.000015 165.272218 5.673900 174.314719 -62.043231 -1.144537 8.165028 75.694594 -4.020226 6.224175 21.454557 -0.003089 -0.000001 8.708968 -1.085849 -0.097036 7.408920 -2.163200 -0.263303 7.090564 -2.164885 -0.250233 10.506478 -2.330558 17.615514 -7.117878 -16.787565 22.479869 -157.303108 -67.596132 -24.807260 -14.103746 54.450464 22.778772 -37.477503 -20.221540 1.759796 5.268188 -0.430211 7.473322 -163.103509 75.676573 18.763473 -8.882275 -60.382545 -34.316355 -27.043996 13.998831 -1.111664 10.623726 -6.938780 -30.732159 
252.011106 0.000000 -240.021281 0.000000 147.099831 0.000000 2.805257 89.163277 1.294922 100.558480 0.576601 179.254229 -179.584297 -1.010169 -167.260990 -28.089052 -6.865240 -6.057043 85.770568 4.243879 -0.328799 21.454557 0.003104 0.000016 165.503183 5.454245 171.627373 -58.371933 -1.793703 8.664616 76.371854 -4.549676 5.665098 21.454553 -0.003092 -0.000002 8.752723 -1.105299 -0.146976 7.497496 -2.198701 -0.365184 7.179145 -2.200998 -0.351899 10.577200 -2.474528 17.541306 -7.267113 -16.661415 22.389855 -157.464583 -67.683275 -24.638460 -14.700757 54.227301 21.945047 -38.197067 -20.452414 1.793060 5.039810 -0.809475 6.980871 -162.861691 75.626368 19.011203 -8.828722 -60.194758 -34.610940 -27.087193 13.995417 -1.112193 10.464151 -6.880497 -31.025639 
252.046618 0.000000 -241.350580 0.000000 149.240625 0.000000 2.629540 89.212509 1.245730 100.251632 0.530698 179.385856 -179.666733 -1.493396 -165.839001 -27.752308 -6.873919 -5.433936 85.699469 3.761930 -0.638691 21.454557 0.003104 0.000017 165.981274 5.399896 168.718541 -54.339973 -2.312655 8.444023 76.935748 -4.572542 5.043997 21.454548 -0.003094 -0.000002 8.790639 -1.115477 -0.203779 7.574483 -2.215177 -0.480082 7.256143 -2.218166 -0.466697 10.618127 -2.631804 17.468460 -7.455802 -16.525474 22.302709 -157.626504 -67.787179 -24.468909 -15.355798 54.037347 21.064045 -38.805555 -20.641419 1.821515 4.893738 -1.142258 6.523712 -162.693001 75.588976 19.184039 -8.748295 -59.983327 -34.829432 -27.204128 13.987766 -1.113704 10.234124 -6.846524 -31.144692 
252.078178 0.000000 -242.685389 0.000000 151.426273 0.000000 2.466831 89.212954 1.178438 99.923304 0.388390 179.506407 -179.879173 -1.867144 -164.407045 -27.537242 -6.855360 -4.798394 85.682917 3.264336 -0.974081 21.454557 0.003106 0.000017 166.634039 5.585952 165.546063 -50.141713 -2.761470 7.280643 77.469564 -3.840965 4.736929 21.454549 -0.003092 -0.000001 8.823234 -1.133385 -0.255296 7.640833 -2.247404 -0.584843 7.322485 -2.251025 -0.571261 10.616226 -2.732404 17.392153 -7.646129 -16.465647 22.234307 -157.784378 -67.935752 -24.302760 -16.068171 53.874307 20.166928 -39.294947 -20.749463 1.841692 4.942944 -1.429227 6.053763 -162.431819 75.687056 19.450040 -8.539466 -59.906709 -34.992871 -27.499899 14.000240 -1.119616 10.184894 -6.721707 -31.166345 
